# Blender 4.2.3 LTS
# www.blender.org
o Cube
v -0.574683 -0.555217 2.329428
v -0.574683 -0.502367 2.382278
v -0.627533 -0.501297 2.329428
v -0.627533 0.414301 2.329428
v -0.574683 0.414301 2.382278
v -0.574683 0.467152 2.329428
v -0.627533 -0.146200 -2.329428
v -0.574683 -0.147269 -2.382278
v -0.574683 -0.200119 -2.329428
v -0.574683 0.467152 -2.329428
v -0.574683 0.414301 -2.382278
v -0.627533 0.414301 -2.329428
v 0.627533 -0.501297 2.329428
v 0.574683 -0.502367 2.382278
v 0.574683 -0.555217 2.329428
v 0.574683 0.467152 2.329428
v 0.574683 0.414301 2.382278
v 0.627533 0.414301 2.329428
v 0.574683 -0.200119 -2.329428
v 0.574683 -0.147269 -2.382278
v 0.627533 -0.146200 -2.329428
v 0.574683 0.467152 -2.329428
v 0.627533 0.414301 -2.329428
v 0.574683 0.414301 -2.382278
v -0.574683 -0.200119 -1.559926
v -0.627533 -0.146157 -1.559926
v -0.627533 0.414301 -1.559926
v -0.574683 0.467152 -1.559926
v 0.627533 -0.146157 -1.559926
v 0.574683 -0.200119 -1.559926
v 0.574683 0.467152 -1.559926
v 0.627533 0.414301 -1.559926
v -0.627533 -0.501255 -0.614061
v -0.574683 -0.555217 -0.614061
v 0.627533 0.414301 -0.614061
v 0.574683 0.467152 -0.614061
v -0.627533 0.414301 -0.614061
v -0.574683 0.467152 -0.614061
v 0.627533 -0.501255 -0.614061
v 0.574683 -0.555217 -0.614061
v -0.000000 0.524208 -1.143942
v -0.141953 0.524208 -1.085144
v -0.200752 0.524208 -0.943190
v -0.141953 0.524208 -0.801237
v -0.000000 0.524208 -0.742438
v 0.141953 0.524208 -0.801237
v 0.200752 0.524208 -0.943190
v 0.141953 0.524208 -1.085144
v -0.000000 0.455885 -1.143942
v -0.141953 0.455885 -1.085144
v -0.200752 0.455885 -0.943190
v -0.141953 0.455885 -0.801237
v -0.000000 0.455885 -0.742438
v 0.141953 0.455885 -0.801237
v 0.200752 0.455885 -0.943190
v 0.141953 0.455885 -1.085144
v -0.000000 0.517667 -0.231286
v -0.077884 0.517667 -0.199026
v -0.110145 0.517667 -0.121141
v -0.077884 0.517667 -0.043257
v -0.000000 0.517667 -0.010997
v 0.077884 0.517667 -0.043257
v 0.110145 0.517667 -0.121141
v 0.077884 0.517667 -0.199026
v -0.000000 0.452010 -0.231286
v -0.077884 0.452010 -0.199026
v -0.110145 0.452010 -0.121141
v -0.077884 0.452010 -0.043257
v -0.000000 0.452010 -0.010997
v 0.077884 0.452010 -0.043257
v 0.110145 0.452010 -0.121141
v 0.077884 0.452010 -0.199026
v 0.323837 0.517667 -0.231286
v 0.245953 0.517667 -0.199026
v 0.213693 0.517667 -0.121141
v 0.245953 0.517667 -0.043257
v 0.323837 0.517667 -0.010997
v 0.401721 0.517667 -0.043257
v 0.433982 0.517667 -0.121141
v 0.401721 0.517667 -0.199026
v 0.323837 0.452010 -0.231286
v 0.245953 0.452010 -0.199026
v 0.213693 0.452010 -0.121141
v 0.245953 0.452010 -0.043257
v 0.323837 0.452010 -0.010997
v 0.401721 0.452010 -0.043257
v 0.433982 0.452010 -0.121141
v 0.401721 0.452010 -0.199026
v -0.357051 0.517667 -0.231286
v -0.434936 0.517667 -0.199026
v -0.467196 0.517667 -0.121141
v -0.434936 0.517667 -0.043257
v -0.357051 0.517667 -0.010997
v -0.279167 0.517667 -0.043257
v -0.246907 0.517667 -0.121141
v -0.279167 0.517667 -0.199026
v -0.357051 0.452010 -0.231286
v -0.434936 0.452010 -0.199026
v -0.467196 0.452010 -0.121141
v -0.434936 0.452010 -0.043257
v -0.357051 0.452010 -0.010997
v -0.279167 0.452010 -0.043257
v -0.246907 0.452010 -0.121141
v -0.279167 0.452010 -0.199026
v -0.000000 0.518663 1.033666
v -0.087635 0.518663 1.069966
v -0.123935 0.518663 1.157601
v -0.087635 0.518663 1.245236
v -0.000000 0.518663 1.281536
v 0.087635 0.518663 1.245236
v 0.123935 0.518663 1.157601
v 0.087635 0.518663 1.069966
v -0.000000 0.448312 1.033666
v -0.087635 0.448312 1.069966
v -0.123935 0.448312 1.157601
v -0.087635 0.448312 1.245236
v -0.000000 0.448312 1.281536
v 0.087635 0.448312 1.245236
v 0.123935 0.448312 1.157601
v 0.087635 0.448312 1.069966
v -0.000000 0.518663 1.452994
v -0.087635 0.518663 1.489294
v -0.123935 0.518663 1.576929
v -0.087635 0.518663 1.664564
v -0.000000 0.518663 1.700864
v 0.087635 0.518663 1.664564
v 0.123935 0.518663 1.576929
v 0.087635 0.518663 1.489294
v -0.000000 0.448312 1.452994
v -0.087635 0.448312 1.489294
v -0.123935 0.448312 1.576929
v -0.087635 0.448312 1.664564
v -0.000000 0.448312 1.700864
v 0.087635 0.448312 1.664564
v 0.123935 0.448312 1.576929
v 0.087635 0.448312 1.489294
v -0.421140 0.517838 -2.295553
v -0.500699 0.517838 -2.262599
v -0.533653 0.517838 -2.183040
v -0.500699 0.517838 -2.103481
v -0.421140 0.517838 -2.070526
v -0.341582 0.517838 -2.103481
v -0.308627 0.517838 -2.183040
v -0.341582 0.517838 -2.262599
v -0.421140 0.451375 -2.295553
v -0.500699 0.451375 -2.262599
v -0.533653 0.451375 -2.183040
v -0.500699 0.451375 -2.103481
v -0.421140 0.451375 -2.070526
v -0.341582 0.451375 -2.103481
v -0.308627 0.451375 -2.183040
v -0.341582 0.451375 -2.262599
v -0.098637 0.524618 -1.514193
v 0.098637 0.524618 -1.514193
v -0.098637 0.524618 -1.711466
v 0.098637 0.524618 -1.711466
v -0.295698 0.524618 -1.514193
v 0.295698 0.524618 -1.514193
v -0.295698 0.524618 -1.711466
v 0.295698 0.524618 -1.711466
v -0.098637 0.524618 -1.317201
v 0.098637 0.524618 -1.317201
v -0.098637 0.524618 -1.908458
v 0.098637 0.524618 -1.908458
v -0.098637 0.451531 -1.514193
v 0.098637 0.451531 -1.514193
v -0.098637 0.451531 -1.711466
v 0.098637 0.451531 -1.711466
v -0.295698 0.451531 -1.514193
v 0.295698 0.451531 -1.514193
v -0.295698 0.451531 -1.711466
v 0.295698 0.451531 -1.711466
v -0.098637 0.451531 -1.317201
v 0.098637 0.451531 -1.317201
v -0.098637 0.451531 -1.908458
v 0.098637 0.451531 -1.908458
vn -0.0000 -1.0000 -0.0000
vn -0.0000 1.0000 -0.0000
vn -1.0000 -0.0000 -0.0000
vn -0.0000 -0.0000 1.0000
vn 1.0000 -0.0000 -0.0000
vn -0.0000 0.9362 0.3515
vn -0.0000 -0.0000 -1.0000
vn 0.5851 0.5735 -0.5735
vn 0.5774 -0.5774 -0.5773
vn 0.5851 0.5735 0.5735
vn 0.5774 -0.5774 0.5773
vn -0.5851 0.5735 -0.5735
vn -0.5774 -0.5774 -0.5773
vn -0.5851 0.5735 0.5735
vn -0.5774 -0.5774 0.5773
vn 0.7142 0.7000 -0.0000
vn 0.7071 -0.0000 -0.7071
vn 0.7071 -0.7071 -0.0000
vn 0.7071 -0.0000 0.7071
vn -0.0000 0.7071 0.7071
vn -0.0000 -0.7071 0.7071
vn -0.7071 -0.0000 0.7071
vn -0.7142 0.7000 -0.0000
vn -0.7071 -0.7071 -0.0000
vn -0.7071 -0.0000 -0.7071
vn -0.0000 0.7071 -0.7071
vn -0.0000 -0.7071 -0.7071
vn -0.6910 0.6767 0.2541
vn 0.6910 0.6767 0.2541
vn -0.9239 -0.0000 0.3827
vn -0.3827 -0.0000 -0.9239
vn 0.9239 -0.0000 -0.3827
vn 0.3827 -0.0000 0.9239
vn -0.3827 -0.0000 0.9239
vn -0.9239 -0.0000 -0.3827
vn 0.3827 -0.0000 -0.9239
vn 0.9239 -0.0000 0.3827
vn 0.7144 0.6997 -0.0000
vn -0.7144 0.6997 -0.0000
vt 0.635527 0.543149
vt 0.864473 0.502773
vt 0.635527 0.502773
vt 0.135527 0.543149
vt 0.364473 0.502773
vt 0.135527 0.502773
vt 0.395218 0.543149
vt 0.605199 0.502773
vt 0.395202 0.502773
vt 0.135527 0.747227
vt 0.364473 0.592780
vt 0.135527 0.592780
vt 0.635527 0.747227
vt 0.864473 0.592780
vt 0.635527 0.592780
vt 0.394801 0.489473
vt 0.605199 0.260527
vt 0.394801 0.260527
vt 0.388195 0.592780
vt 0.612077 0.747227
vt 0.612077 0.592780
vt 0.395218 0.206851
vt 0.605199 0.247227
vt 0.605199 0.206851
vt 0.364473 0.543149
vt 0.864473 0.543149
vt 0.387923 0.989473
vt 0.612077 0.760527
vt 0.387923 0.760527
vt 0.395218 0.543149
vt 0.612077 0.592780
vt 0.605199 0.543149
vt 0.395218 0.206851
vt 0.612077 0.157220
vt 0.388195 0.157220
vt 0.375000 0.989473
vt 0.388185 1.000000
vt 0.612077 1.000000
vt 0.625000 0.989473
vt 0.612077 0.989473
vt 0.395202 0.250000
vt 0.375000 0.260527
vt 0.625000 0.260527
vt 0.605199 0.250000
vt 0.388185 0.750000
vt 0.375000 0.760527
vt 0.625000 0.760527
vt 0.612077 0.750000
vt 0.375000 0.489473
vt 0.395202 0.500000
vt 0.625000 0.489473
vt 0.605199 0.489473
vt 0.605199 0.500000
vt 0.125000 0.747227
vt 0.625000 0.247227
vt 0.625000 0.206851
vt 0.395202 0.247227
vt 0.388185 0.747227
vt 0.125000 0.502773
vt 0.625000 0.157220
vt 0.125000 0.591848
vt 0.612077 0.002773
vt 0.625000 0.002773
vt 0.364473 0.747227
vt 0.388185 0.002773
vt 0.000000 0.000000
vt 0.000000 1.000000
vt 1.000000 0.000000
vt 1.000000 1.000000
vt 0.605199 0.543149
vt 0.864473 0.747227
vt 0.605199 0.206851
vt 0.125000 0.592780
vt 0.125000 0.543149
vt 0.612077 0.157220
s 0
f 31/1/1 10/2/1 22/3/1
f 25/4/2 19/5/2 9/6/2
f 29/7/3 23/8/3 21/9/3
f 1/10/2 40/11/2 34/12/2
f 16/13/1 38/14/1 36/15/1
f 20/16/4 11/17/4 8/18/4
f 39/19/3 18/20/3 35/21/3
f 26/22/5 12/23/5 27/24/5
f 34/12/6 30/25/6 25/4/6
f 36/15/1 28/26/1 31/1/1
f 2/27/7 17/28/7 14/29/7
f 29/30/3 35/31/3 32/32/3
f 26/33/5 37/34/5 33/35/5
f 1/36/8 3/37/8 2/27/8
f 4/38/9 6/39/9 5/40/9
f 7/41/10 9/42/10 8/18/10
f 10/43/11 12/44/11 11/17/11
f 13/45/12 15/46/12 14/29/12
f 16/47/13 18/48/13 17/28/13
f 19/49/14 21/50/14 20/16/14
f 22/51/15 24/52/15 23/53/15
f 34/12/16 3/54/16 1/10/16
f 3/37/17 5/40/17 2/27/17
f 27/24/18 10/55/18 28/56/18
f 11/17/19 7/57/19 8/18/19
f 20/16/20 9/42/20 19/49/20
f 11/17/21 22/51/21 10/43/21
f 24/52/22 21/9/22 23/8/22
f 30/25/23 21/9/23 19/5/23
f 35/21/24 16/13/24 36/15/24
f 17/28/25 13/58/25 14/29/25
f 2/27/26 15/46/26 1/36/26
f 17/28/27 6/39/27 16/47/27
f 7/59/16 25/4/16 9/6/16
f 37/34/18 28/56/18 38/60/18
f 39/19/28 30/25/28 40/11/28
f 23/8/24 31/1/24 22/3/24
f 25/4/29 33/61/29 34/12/29
f 32/32/24 36/15/24 31/1/24
f 4/62/18 38/60/18 6/63/18
f 13/58/23 40/11/23 15/64/23
f 33/35/5 4/62/5 3/65/5
f 56/66/30 47/66/30 48/66/30
f 54/66/31 45/66/31 46/66/31
f 52/66/32 43/66/32 44/66/32
f 50/66/33 41/66/33 42/66/33
f 49/66/34 48/66/34 41/66/34
f 55/66/35 46/66/35 47/66/35
f 53/66/36 44/66/36 45/66/36
f 51/66/37 42/66/37 43/66/37
f 47/66/1 45/66/1 43/66/1
f 72/66/30 63/66/30 64/66/30
f 70/66/31 61/66/31 62/66/31
f 68/66/32 59/66/32 60/66/32
f 66/66/33 57/66/33 58/66/33
f 65/66/34 64/66/34 57/66/34
f 71/66/35 62/66/35 63/66/35
f 69/66/36 60/66/36 61/66/36
f 67/66/37 58/66/37 59/66/37
f 63/66/1 61/66/1 59/66/1
f 88/66/30 79/66/30 80/66/30
f 86/66/31 77/66/31 78/66/31
f 84/66/32 75/66/32 76/66/32
f 82/66/33 73/66/33 74/66/33
f 81/66/34 80/66/34 73/66/34
f 87/66/35 78/66/35 79/66/35
f 85/66/36 76/66/36 77/66/36
f 83/66/37 74/66/37 75/66/37
f 79/66/1 77/66/1 75/66/1
f 104/66/30 95/66/30 96/66/30
f 102/66/31 93/66/31 94/66/31
f 100/66/32 91/66/32 92/66/32
f 98/66/33 89/66/33 90/66/33
f 97/66/34 96/66/34 89/66/34
f 103/66/35 94/66/35 95/66/35
f 101/66/36 92/66/36 93/66/36
f 99/66/37 90/66/37 91/66/37
f 95/66/1 93/66/1 91/66/1
f 120/66/30 111/66/30 112/66/30
f 118/66/31 109/66/31 110/66/31
f 116/66/32 107/66/32 108/66/32
f 114/66/33 105/66/33 106/66/33
f 113/66/34 112/66/34 105/66/34
f 119/66/35 110/66/35 111/66/35
f 117/66/36 108/66/36 109/66/36
f 115/66/37 106/66/37 107/66/37
f 111/66/1 109/66/1 107/66/1
f 136/66/30 127/66/30 128/66/30
f 134/66/31 125/66/31 126/66/31
f 132/66/32 123/66/32 124/66/32
f 130/66/33 121/66/33 122/66/33
f 129/66/34 128/66/34 121/66/34
f 135/66/35 126/66/35 127/66/35
f 133/66/36 124/66/36 125/66/36
f 131/66/37 122/66/37 123/66/37
f 127/66/1 125/66/1 123/66/1
f 152/66/30 143/66/30 144/66/30
f 150/66/31 141/66/31 142/66/31
f 148/66/32 139/66/32 140/66/32
f 146/66/33 137/66/33 138/66/33
f 145/66/34 144/66/34 137/66/34
f 151/66/35 142/66/35 143/66/35
f 149/66/36 140/66/36 141/66/36
f 147/66/37 138/66/37 139/66/37
f 143/66/1 141/66/1 139/66/1
f 155/67/1 154/68/1 153/66/1
f 160/69/1 154/68/1 156/69/1
f 157/66/1 155/67/1 153/66/1
f 163/67/1 156/69/1 155/67/1
f 162/68/1 153/66/1 154/68/1
f 160/69/3 170/68/3 158/68/3
f 155/67/5 175/67/5 163/67/5
f 159/67/4 167/67/4 155/67/4
f 156/69/4 172/69/4 160/69/4
f 164/69/3 168/69/3 156/69/3
f 162/68/7 173/66/7 161/66/7
f 158/68/7 166/68/7 154/68/7
f 154/68/3 174/68/3 162/68/3
f 157/66/5 171/67/5 159/67/5
f 163/67/4 176/69/4 164/69/4
f 153/66/7 169/66/7 157/66/7
f 161/66/5 165/66/5 153/66/5
f 31/1/1 28/26/1 10/2/1
f 25/4/2 30/25/2 19/5/2
f 29/7/3 32/70/3 23/8/3
f 1/10/2 15/64/2 40/11/2
f 16/13/1 6/71/1 38/14/1
f 20/16/4 24/52/4 11/17/4
f 39/19/3 13/58/3 18/20/3
f 26/22/5 7/57/5 12/23/5
f 34/12/6 40/11/6 30/25/6
f 36/15/1 38/14/1 28/26/1
f 2/27/7 5/40/7 17/28/7
f 29/30/3 39/19/3 35/31/3
f 26/33/5 27/72/5 37/34/5
f 34/12/38 33/73/38 3/54/38
f 3/37/17 4/38/17 5/40/17
f 27/24/18 12/23/18 10/55/18
f 11/17/19 12/23/19 7/57/19
f 20/16/20 8/18/20 9/42/20
f 11/17/21 24/52/21 22/51/21
f 24/52/22 20/16/22 21/9/22
f 30/25/39 29/7/39 21/9/39
f 35/21/24 18/20/24 16/13/24
f 17/28/25 18/20/25 13/58/25
f 2/27/26 14/29/26 15/46/26
f 17/28/27 5/40/27 6/39/27
f 7/59/38 26/74/38 25/4/38
f 37/34/18 27/72/18 28/56/18
f 39/19/28 29/30/28 30/25/28
f 23/8/24 32/70/24 31/1/24
f 25/4/29 26/74/29 33/61/29
f 32/32/24 35/31/24 36/15/24
f 4/62/18 37/75/18 38/60/18
f 13/58/39 39/19/39 40/11/39
f 33/35/5 37/75/5 4/62/5
f 56/66/30 55/66/30 47/66/30
f 54/66/31 53/66/31 45/66/31
f 52/66/32 51/66/32 43/66/32
f 50/66/33 49/66/33 41/66/33
f 49/66/34 56/66/34 48/66/34
f 55/66/35 54/66/35 46/66/35
f 53/66/36 52/66/36 44/66/36
f 51/66/37 50/66/37 42/66/37
f 43/66/1 42/66/1 41/66/1
f 41/66/1 48/66/1 47/66/1
f 47/66/1 46/66/1 45/66/1
f 45/66/1 44/66/1 43/66/1
f 43/66/1 41/66/1 47/66/1
f 72/66/30 71/66/30 63/66/30
f 70/66/31 69/66/31 61/66/31
f 68/66/32 67/66/32 59/66/32
f 66/66/33 65/66/33 57/66/33
f 65/66/34 72/66/34 64/66/34
f 71/66/35 70/66/35 62/66/35
f 69/66/36 68/66/36 60/66/36
f 67/66/37 66/66/37 58/66/37
f 59/66/1 58/66/1 57/66/1
f 57/66/1 64/66/1 63/66/1
f 63/66/1 62/66/1 61/66/1
f 61/66/1 60/66/1 59/66/1
f 59/66/1 57/66/1 63/66/1
f 88/66/30 87/66/30 79/66/30
f 86/66/31 85/66/31 77/66/31
f 84/66/32 83/66/32 75/66/32
f 82/66/33 81/66/33 73/66/33
f 81/66/34 88/66/34 80/66/34
f 87/66/35 86/66/35 78/66/35
f 85/66/36 84/66/36 76/66/36
f 83/66/37 82/66/37 74/66/37
f 75/66/1 74/66/1 73/66/1
f 73/66/1 80/66/1 79/66/1
f 79/66/1 78/66/1 77/66/1
f 77/66/1 76/66/1 75/66/1
f 75/66/1 73/66/1 79/66/1
f 104/66/30 103/66/30 95/66/30
f 102/66/31 101/66/31 93/66/31
f 100/66/32 99/66/32 91/66/32
f 98/66/33 97/66/33 89/66/33
f 97/66/34 104/66/34 96/66/34
f 103/66/35 102/66/35 94/66/35
f 101/66/36 100/66/36 92/66/36
f 99/66/37 98/66/37 90/66/37
f 91/66/1 90/66/1 89/66/1
f 89/66/1 96/66/1 95/66/1
f 95/66/1 94/66/1 93/66/1
f 93/66/1 92/66/1 91/66/1
f 91/66/1 89/66/1 95/66/1
f 120/66/30 119/66/30 111/66/30
f 118/66/31 117/66/31 109/66/31
f 116/66/32 115/66/32 107/66/32
f 114/66/33 113/66/33 105/66/33
f 113/66/34 120/66/34 112/66/34
f 119/66/35 118/66/35 110/66/35
f 117/66/36 116/66/36 108/66/36
f 115/66/37 114/66/37 106/66/37
f 107/66/1 106/66/1 105/66/1
f 105/66/1 112/66/1 111/66/1
f 111/66/1 110/66/1 109/66/1
f 109/66/1 108/66/1 107/66/1
f 107/66/1 105/66/1 111/66/1
f 136/66/30 135/66/30 127/66/30
f 134/66/31 133/66/31 125/66/31
f 132/66/32 131/66/32 123/66/32
f 130/66/33 129/66/33 121/66/33
f 129/66/34 136/66/34 128/66/34
f 135/66/35 134/66/35 126/66/35
f 133/66/36 132/66/36 124/66/36
f 131/66/37 130/66/37 122/66/37
f 123/66/1 122/66/1 121/66/1
f 121/66/1 128/66/1 127/66/1
f 127/66/1 126/66/1 125/66/1
f 125/66/1 124/66/1 123/66/1
f 123/66/1 121/66/1 127/66/1
f 152/66/30 151/66/30 143/66/30
f 150/66/31 149/66/31 141/66/31
f 148/66/32 147/66/32 139/66/32
f 146/66/33 145/66/33 137/66/33
f 145/66/34 152/66/34 144/66/34
f 151/66/35 150/66/35 142/66/35
f 149/66/36 148/66/36 140/66/36
f 147/66/37 146/66/37 138/66/37
f 139/66/1 138/66/1 137/66/1
f 137/66/1 144/66/1 143/66/1
f 143/66/1 142/66/1 141/66/1
f 141/66/1 140/66/1 139/66/1
f 139/66/1 137/66/1 143/66/1
f 155/67/1 156/69/1 154/68/1
f 160/69/1 158/68/1 154/68/1
f 157/66/1 159/67/1 155/67/1
f 163/67/1 164/69/1 156/69/1
f 162/68/1 161/66/1 153/66/1
f 160/69/3 172/69/3 170/68/3
f 155/67/5 167/67/5 175/67/5
f 159/67/4 171/67/4 167/67/4
f 156/69/4 168/69/4 172/69/4
f 164/69/3 176/69/3 168/69/3
f 162/68/7 174/68/7 173/66/7
f 158/68/7 170/68/7 166/68/7
f 154/68/3 166/68/3 174/68/3
f 157/66/5 169/66/5 171/67/5
f 163/67/4 175/67/4 176/69/4
f 153/66/7 165/66/7 169/66/7
f 161/66/5 173/66/5 165/66/5
